<svg width="613" height="374" viewBox="0 0 613 374" fill="none" xmlns="http://www.w3.org/2000/svg">
<path d="M507.748 243.979C507.748 127.98 413.712 33.9446 297.713 33.9446C181.715 33.9446 87.6793 127.98 87.6793 243.979C87.6793 292.677 104.258 337.5 132.072 373.123H463.356C491.169 337.5 507.748 292.677 507.748 243.979Z" fill="#E6F5FA"/>
<path d="M585.246 288.41H530.983C529.001 288.41 527.395 286.804 527.395 284.823C527.395 282.841 529.001 281.235 530.983 281.235H585.246C587.227 281.235 588.833 282.842 588.833 284.823C588.833 286.804 587.227 288.41 585.246 288.41Z" fill="#E6F5FA"/>
<path d="M63.1675 250.728H3.5875C1.60671 250.728 0 249.122 0 247.141C0 245.159 1.60573 243.553 3.5875 243.553H63.1675C65.1483 243.553 66.755 245.16 66.755 247.141C66.755 249.122 65.1483 250.728 63.1675 250.728Z" fill="#E6F5FA"/>
<path d="M596.858 332.33H591.169C589.675 332.33 588.463 331.118 588.463 329.624V324.284C588.463 322.789 589.675 321.577 591.169 321.577H596.858C598.352 321.577 599.564 322.789 599.564 324.284V329.624C599.564 331.119 598.352 332.33 596.858 332.33Z" fill="#90D3ED"/>
<path d="M48.0196 305.409H40.4851C38.5053 305.409 36.9006 303.804 36.9006 301.824V294.752C36.9006 292.772 38.5053 291.167 40.4851 291.167H48.0196C49.9994 291.167 51.6041 292.772 51.6041 294.752V301.824C51.6041 303.804 49.9994 305.409 48.0196 305.409Z" fill="#90D3ED"/>
<path d="M406.52 8.68701H432.316C433.637 8.68701 434.708 9.77312 434.708 11.1122V23.7588C434.708 25.0979 433.638 26.184 432.316 26.184H419.012L411.105 32.9595V26.5425L406.472 26.4106C405.17 26.3842 404.128 25.3059 404.128 23.9854V11.1122C404.128 9.77312 405.2 8.68701 406.52 8.68701Z" stroke="white" stroke-width="1.2926" stroke-miterlimit="10" stroke-linecap="round" stroke-linejoin="round"/>
<path d="M577.368 125.827C577.368 130.205 573.869 133.754 569.553 133.754C565.236 133.754 561.737 130.205 561.737 125.827C561.737 121.45 565.236 117.901 569.553 117.901C573.869 117.901 577.368 121.45 577.368 125.827Z" stroke="white" stroke-width="1.2572" stroke-miterlimit="10"/>
<path d="M16.4715 191.877C16.4715 196.255 12.9719 199.803 8.65581 199.803C4.33871 199.803 0.840088 196.255 0.840088 191.877C0.840088 187.5 4.33968 183.951 8.65581 183.951C12.9719 183.951 16.4715 187.5 16.4715 191.877Z" stroke="white" stroke-width="1.2572" stroke-miterlimit="10"/>
<path d="M551.299 60.1526H502.778C498.065 60.1526 494.244 56.3317 494.244 51.619V6.51009C494.244 2.93724 497.141 0.0402832 500.714 0.0402832H551.299C554.872 0.0402832 557.769 2.93724 557.769 6.51009V53.6838C557.769 57.2566 554.872 60.1526 551.299 60.1526Z" fill="#0083C8"/>
<path d="M83.202 106.763H28.8181C23.536 106.763 19.2541 102.481 19.2541 97.1991V46.6391C19.2541 42.6346 22.5007 39.3879 26.5053 39.3879H83.202C87.2065 39.3879 90.4532 42.6346 90.4532 46.6391V99.5129C90.4532 103.518 87.2065 106.763 83.202 106.763Z" fill="#FFCC05"/>
<path d="M512.582 16.5822C505.139 24.0248 505.139 36.2426 512.582 43.6852C520.025 51.1279 532.242 51.1279 539.685 43.6852C547.128 36.2426 547.128 24.0248 539.685 16.5822C532.242 9.13959 520.026 9.13959 512.582 16.5822ZM539.641 19.3424H533.534C532.921 17.4241 532.132 15.5059 531.159 13.5866C534.542 14.6131 537.486 16.6476 539.641 19.3424ZM519.097 29.0129C519.1 26.536 519.392 24.06 520.005 21.583H532.264C532.876 24.06 533.168 26.536 533.171 29.0129H519.097ZM533.096 31.2545C532.927 33.7305 532.479 36.2075 531.779 38.6844H520.489C519.789 36.2084 519.341 33.7315 519.172 31.2545H533.096ZM526.134 12.8443C527.055 12.8443 527.959 12.9166 528.841 13.0553C530.015 15.1513 530.936 17.2464 531.62 19.3424H520.648C521.331 17.2464 522.252 15.1513 523.427 13.0553C524.308 12.9166 525.212 12.8443 526.134 12.8443ZM521.109 13.5866C520.135 15.5059 519.347 17.4241 518.734 19.3424H512.627C514.782 16.6476 517.725 14.6122 521.109 13.5866ZM511.103 21.583H518.098C517.485 24.06 517.164 26.536 517.119 29.0129H508.88C509.053 26.323 509.839 23.8002 511.103 21.583ZM511.103 38.6844C509.839 36.4682 509.053 33.9444 508.881 31.2545H517.153C517.274 33.7305 517.668 36.2075 518.32 38.6844H511.103ZM512.626 40.926H518.981C519.615 42.8677 520.404 44.8094 521.343 46.7512C517.862 45.7491 514.831 43.6823 512.626 40.926ZM526.134 47.4241C525.366 47.4241 524.61 47.3743 523.869 47.2766C522.812 45.1601 521.913 43.0426 521.189 40.926H531.079C530.355 43.0435 529.455 45.1601 528.399 47.2766C527.658 47.3733 526.902 47.4241 526.134 47.4241ZM530.924 46.7512C531.863 44.8094 532.653 42.8677 533.286 40.926H539.641C537.437 43.6823 534.406 45.7491 530.924 46.7512ZM541.164 38.6844H533.947C534.599 36.2075 534.993 33.7315 535.114 31.2545H543.386C543.214 33.9444 542.428 36.4682 541.164 38.6844ZM543.386 29.0129H535.148C535.103 26.536 534.781 24.06 534.168 21.583H541.164C542.428 23.8002 543.214 26.323 543.386 29.0129Z" fill="white"/>
<path d="M606.092 242.616H554.272C549.239 242.616 545.158 238.536 545.158 233.502V185.326C545.158 181.51 548.251 178.416 552.067 178.416H606.091C609.907 178.416 613 181.51 613 185.326V235.706C613 239.523 609.907 242.616 606.092 242.616Z" fill="#6FC7BF"/>
<path d="M100.841 188.99L96.6833 198.986C96.6833 198.986 120.634 216.141 140.449 225.988C146.699 229.094 153.962 223.989 153.573 217.021C153.57 216.95 153.566 216.877 153.562 216.806C153.349 213.027 150.862 209.753 147.277 208.538C127.016 201.671 123.058 198.933 100.841 188.99Z" fill="#D97F48"/>
<path d="M99.8499 199.879C99.8499 199.879 79.1347 209.009 71.5182 195.762L102.933 187.965L99.8499 199.879Z" fill="#D97F48"/>
<path d="M164.418 153.42C154.514 170.383 142.57 194.663 136.008 213.164C134.313 217.942 136.052 223.283 140.664 225.388C140.719 225.413 140.773 225.437 140.828 225.463C145.346 227.539 150.694 225.846 153.104 221.495C168.076 194.481 181.411 173.43 181.411 173.43L164.418 153.42Z" fill="#D97F48"/>
<path d="M164.824 148.741C164.824 148.741 149.941 151.902 137.493 188.646L165.508 205.265L175.838 184.751L164.824 148.741Z" fill="#0F9D58"/>
<path d="M151.051 196.017H118.722V190.838H151.051C152.481 190.838 153.641 191.998 153.641 193.427C153.641 194.857 152.481 196.017 151.051 196.017Z" fill="#08101C"/>
<path d="M131.576 195.997H57.9073C56.1834 195.997 54.6587 194.878 54.142 193.234L41.0901 149.597C40.5236 147.793 41.8705 145.957 43.7614 145.957H113.615C115.338 145.957 116.863 147.076 117.38 148.72L131.576 195.997Z" fill="#111D36"/>
<path d="M89.0647 169.248C89.6107 172.281 87.5947 175.183 84.562 175.729C81.5293 176.275 78.6265 174.259 78.0805 171.227C77.5345 168.194 79.5505 165.291 82.5832 164.745C85.6169 164.198 88.5187 166.214 89.0647 169.248Z" fill="#E6F5FA"/>
<path d="M230.949 201.052C230.949 201.052 248.728 265.241 255.982 321.074L268.188 318.76C268.188 318.76 264.399 236.947 252.088 186.337L230.949 201.052Z" fill="#D97F48"/>
<path d="M268.089 315.96C268.089 315.96 286.457 343.082 264.412 355.273C262.96 356.076 261.126 355.749 260.051 354.484L259.909 354.316C258.723 352.92 258.858 350.875 260.144 349.571C263.275 346.397 267.487 339.819 260.775 331.226C260.775 331.226 257.252 332.125 257.842 339.12C257.993 340.92 256.499 342.437 254.701 342.266C253.474 342.15 252.466 341.272 252.166 340.076C251.011 335.465 249.098 324.029 256.47 317.885L268.089 315.96Z" fill="#D97F48"/>
<path d="M233.26 148.741C233.26 148.741 244.633 152.056 256.759 190.462L228.744 207.081L222.246 184.75L233.26 148.741Z" fill="#0F9D58"/>
<path d="M231.546 147.699L210.442 139.298L188.745 139.589L166.975 147.569C162.889 149.067 160.598 153.41 161.666 157.627L177.653 220.691H220.484L235.252 154.717C235.908 151.785 234.337 148.811 231.546 147.699Z" fill="#0F9D58"/>
<path d="M220.485 220.69H177.653V227.544H220.485V220.69Z" fill="#111D36"/>
<path d="M171.256 195.453L163.905 166.459" stroke="#51A99F" stroke-width="1.3684" stroke-miterlimit="10"/>
<path d="M225.798 196.954L232.623 166.459" stroke="#51A99F" stroke-width="1.3684" stroke-miterlimit="10"/>
<path d="M220.484 227.545H177.653C177.653 227.545 156.898 232.805 143.011 330.018C140.894 344.835 139.069 359.278 137.492 373.124H177.941L195.811 283.405L199.719 284.434L206.315 373.124H244.317L245.111 325.212C245.111 325.212 241.687 247.229 220.484 227.545Z" fill="#006AB8"/>
<path d="M199.719 284.432L186.41 279.235" stroke="#005A94" stroke-width="1.3684" stroke-miterlimit="10"/>
<path d="M234.801 102.517C232.906 95.3274 232.217 96.6128 225.843 82.3136C222.034 73.7702 219.088 70.3361 217.332 68.954C217.332 68.954 210.891 62.0222 199.373 62.0222C188.374 62.0222 182.005 68.6082 182.005 68.6082C180.334 69.7217 177.195 72.9488 173.021 82.3126C166.647 96.6128 165.957 95.3265 164.062 102.516C162.167 109.706 164.579 122.972 179.396 125.556C179.396 125.556 177.501 123.661 176.811 120.56C176.811 120.56 183.013 129.002 191.455 128.485H207.408C215.85 129.002 222.052 120.56 222.052 120.56C221.363 123.661 219.468 125.556 219.468 125.556C234.284 122.974 236.696 109.707 234.801 102.517Z" fill="#111D36"/>
<path d="M219.177 142.776L210.442 139.299L207.805 116.317C207.805 116.317 205.083 119.092 201.471 119.763C197.859 120.434 194.36 118.323 194.316 118.297C194.272 118.272 191.366 115.852 191.366 115.852L188.745 139.589L179.227 143.078C179.227 143.078 179.841 149.261 199.973 149.261C220.104 149.262 219.177 142.776 219.177 142.776Z" fill="#D97F48"/>
<path d="M189.705 116.676C189.705 116.676 195.234 127.354 201.819 125.824C208.694 124.227 208.662 115.197 208.662 115.197L189.705 116.676Z" fill="#111D36"/>
<path d="M223.11 85.9889C223.11 99.0653 212.934 109.666 200.382 109.666C187.829 109.666 177.653 99.0653 177.653 85.9889C177.653 72.9126 187.829 64.0166 200.382 64.0166C212.934 64.0166 223.11 72.9126 223.11 85.9889Z" fill="#111D36"/>
<path d="M219.162 87.207C219.162 95.3587 218.028 102.394 216.896 107.387C215.787 112.276 212.668 115.691 208.26 118.441L207.457 118.942C202.793 121.851 196.767 121.919 192.032 119.116C187.255 116.288 183.911 112.56 182.883 107.315C181.011 97.7742 180.806 87.208 180.806 87.208C180.806 87.208 179.026 66.6285 199.711 67.028C220.397 67.4274 219.162 87.207 219.162 87.207Z" fill="#D97F48"/>
<path d="M183.062 106.535C179.417 109.682 171.744 97.2207 175.273 93.8598C178.802 90.4999 181.298 95.9676 181.298 95.9676L182.014 99.9047L183.08 105.204L183.354 106.393L183.062 106.535Z" fill="#D97F48"/>
<path d="M176.858 98.0606C176.858 98.0606 178.349 94.8326 181.819 100.5" stroke="#111D36" stroke-width="1.0039" stroke-miterlimit="10" stroke-linecap="round" stroke-linejoin="round"/>
<path d="M216.886 106.607C220.584 109.692 228.043 97.0997 224.457 93.8013C220.87 90.502 218.468 96.0116 218.468 96.0116L217.821 99.9615L216.846 105.28L216.592 106.472L216.886 106.607Z" fill="#D97F48"/>
<path d="M222.944 98.0259C222.944 98.0259 221.398 94.8242 218.025 100.55" stroke="#111D36" stroke-width="1.0039" stroke-miterlimit="10" stroke-linecap="round" stroke-linejoin="round"/>
<path d="M181.073 93.616C181.073 93.616 189.344 82.4354 187.435 71.1084C187.435 71.1084 181.296 74.1978 179.698 82.1707C178.1 90.1447 181.073 93.616 181.073 93.616Z" fill="#111D36"/>
<path d="M219.51 93.8363C219.51 93.8363 209.57 81.6762 211.477 70.3501C211.477 70.3501 218.14 74.1994 219.739 82.1723C221.338 90.1453 219.51 93.8363 219.51 93.8363Z" fill="#111D36"/>
<path d="M174.936 85.5747H225.009C225.009 85.5747 219.369 64.3632 198.25 63.0993C177.132 61.8345 174.936 85.5747 174.936 85.5747Z" fill="#111D36"/>
<path d="M192.726 95.1993C192.726 96.2522 191.872 97.1058 190.819 97.1058C189.766 97.1058 188.913 96.2522 188.913 95.1993C188.913 94.1464 189.766 93.2927 190.819 93.2927C191.872 93.2927 192.726 94.1464 192.726 95.1993Z" fill="#111D36"/>
<path d="M210.382 95.1993C210.382 96.2522 209.528 97.1058 208.476 97.1058C207.423 97.1058 206.569 96.2522 206.569 95.1993C206.569 94.1464 207.423 93.2927 208.476 93.2927C209.528 93.2927 210.382 94.1464 210.382 95.1993Z" fill="#111D36"/>
<path d="M198.691 99.3538L198.694 101.927C198.695 102.576 199.271 103.062 199.885 102.933L201.254 102.646" stroke="#111D36" stroke-width="0.9876" stroke-miterlimit="10" stroke-linecap="round" stroke-linejoin="round"/>
<path d="M196.485 89.2907L184.928 90.6796C184.928 90.6796 185.856 87.6146 190.578 87.0882C195.301 86.5617 196.485 89.2907 196.485 89.2907Z" fill="#111D36"/>
<path d="M203.15 89.2907L214.707 90.6796C214.707 90.6796 213.779 87.6146 209.057 87.0882C204.334 86.5617 203.15 89.2907 203.15 89.2907Z" fill="#111D36"/>
<path d="M188.943 103.027C193.298 103.027 196.828 99.4972 196.828 95.1424C196.828 90.7876 193.298 87.2573 188.943 87.2573C184.588 87.2573 181.058 90.7876 181.058 95.1424C181.058 99.4972 184.588 103.027 188.943 103.027Z" stroke="#6FC7BF" stroke-width="1.083" stroke-miterlimit="10"/>
<path d="M211.277 103.027C215.632 103.027 219.162 99.4972 219.162 95.1424C219.162 90.7876 215.632 87.2573 211.277 87.2573C206.922 87.2573 203.392 90.7876 203.392 95.1424C203.392 99.4972 206.922 103.027 211.277 103.027Z" stroke="#6FC7BF" stroke-width="1.083" stroke-miterlimit="10"/>
<path d="M196.828 95.7981C196.828 95.7981 199.613 91.5162 203.391 95.7981" stroke="#6FC7BF" stroke-width="1.083" stroke-miterlimit="10"/>
<path d="M193.82 106.541H206.4C206.4 106.541 200.505 113.57 193.82 106.541Z" fill="white"/>
<path d="M466.945 169.232L495.663 194.086C501.095 198.787 501.765 206.97 497.17 212.493C492.554 218.04 484.336 218.847 478.73 214.303L450.275 191.243L466.945 169.232Z" fill="#F7A771"/>
<path d="M430.351 144.888C451.238 148.263 474.161 169.232 474.161 169.232L455.202 196.352L430.237 175.906L430.351 144.888Z" fill="#EA4335"/>
<path d="M497.268 141.97L476.623 200.955C474.32 207.476 477.966 214.592 484.604 216.531C491.598 218.573 498.789 213.988 499.889 206.785L510.478 144.153L497.268 141.97Z" fill="#F7A771"/>
<path d="M497.268 141.971C497.268 141.971 493.21 136.744 492.407 121.797C492.357 120.863 492.891 119.989 493.736 119.59C494.976 119.005 496.451 119.622 496.906 120.915L498.961 127.154L510.477 144.155L497.268 141.971Z" fill="#F7A771"/>
<path d="M498.961 127.154L499.46 106.411C499.502 105.528 500.086 104.289 501.213 104.241C502.44 104.105 503.374 104.964 503.405 105.927L503.872 120.634L506.608 103.437C506.741 102.601 507.508 102.018 508.349 102.114C509.177 102.209 509.789 102.929 509.749 103.761L508.856 122.426L512.599 107.088C512.801 106.258 513.571 105.692 514.424 105.747C515.43 105.811 516.177 106.704 516.063 107.706L514.138 124.536L521.575 114.062C522.214 113.301 523.373 113.268 524.056 113.989C524.567 114.531 524.657 115.345 524.275 115.985L518.02 128.662C518.02 128.662 517.626 136.55 510.478 144.154L499.424 137.584L498.961 127.154Z" fill="#F7A771"/>
<path d="M498.961 127.154C498.961 127.154 506.781 127.188 506.927 134.209" stroke="#111D36" stroke-width="1.0166" stroke-miterlimit="10" stroke-linecap="round" stroke-linejoin="round"/>
<path d="M428.232 143.266L443.853 149.187C447.938 150.684 448.98 155.218 447.91 159.436L440.69 248.803H379.072L374.325 156.525C373.669 153.593 375.239 150.619 378.031 149.507L399.135 141.107L428.232 143.266Z" fill="#EA4335"/>
<path d="M445.566 188.458L447.008 170.618" stroke="#00678D" stroke-width="1.4581" stroke-miterlimit="10"/>
<path d="M375.761 204.778C375.761 204.778 359.018 269.844 354.833 325.991L342.519 324.348C342.519 324.348 344.328 242.451 353.849 191.242L375.761 204.778Z" fill="#F7A771"/>
<path d="M376.317 150.549C376.317 150.549 362.439 153.864 350.313 192.271L380.832 208.89L387.33 186.558L376.317 150.549Z" fill="#EA4335"/>
<path d="M421.184 141.146L419.978 118.999C419.978 118.999 415.886 121.855 412.168 122.546C408.45 123.238 404.848 121.062 404.803 121.036C404.757 121.01 400.477 118.519 400.477 118.519L399.174 141.105L399.135 141.106L392.627 143.696C392.627 143.696 396.715 150.659 410.349 149.951C423.983 149.243 428.232 143.264 428.232 143.264L421.184 141.146Z" fill="#F7A771"/>
<path d="M399.596 119.368C399.596 119.368 405.618 130.36 412.79 128.785C420.277 127.141 420.558 117.559 420.558 117.559L399.596 119.368Z" fill="#111D36"/>
<path d="M430.38 89.033C430.38 97.425 429.213 104.666 428.048 109.806C426.907 114.838 423.695 118.354 419.158 121.185L418.331 121.7C413.531 124.695 407.327 124.765 402.453 121.879C397.536 118.969 394.094 115.131 393.034 109.731C391.107 99.9098 390.897 89.032 390.897 89.032C390.897 89.032 389.064 67.8469 410.357 68.2591C431.651 68.6713 430.38 89.033 430.38 89.033Z" fill="#F7A771"/>
<path d="M393.219 108.928C389.467 112.168 381.567 99.3395 385.201 95.8809C388.834 92.4224 391.404 98.0502 391.404 98.0502L392.14 102.104L393.237 107.56L393.52 108.783L393.219 108.928Z" fill="#F7A771"/>
<path d="M386.833 100.204C386.833 100.204 388.368 96.8814 391.94 102.715" stroke="#111D36" stroke-width="1.0334" stroke-miterlimit="10" stroke-linecap="round" stroke-linejoin="round"/>
<path d="M428.037 109.004C431.843 112.179 439.522 99.217 435.83 95.821C432.138 92.4249 429.665 98.0958 429.665 98.0958L428.998 102.161L427.995 107.635L427.733 108.863L428.037 109.004Z" fill="#F7A771"/>
<path d="M434.273 100.172C434.273 100.172 432.681 96.8754 429.21 102.77" stroke="#111D36" stroke-width="1.0334" stroke-miterlimit="10" stroke-linecap="round" stroke-linejoin="round"/>
<path d="M403.166 95.9713C403.166 97.0554 402.287 97.9345 401.203 97.9345C400.119 97.9345 399.24 97.0554 399.24 95.9713C399.24 94.8871 400.119 94.0081 401.203 94.0081C402.287 94.009 403.166 94.8881 403.166 95.9713Z" fill="#111D36"/>
<path d="M421.342 95.9713C421.342 97.0554 420.463 97.9345 419.379 97.9345C418.295 97.9345 417.416 97.0554 417.416 95.9713C417.416 94.8871 418.295 94.0081 419.379 94.0081C420.463 94.009 421.342 94.8881 421.342 95.9713Z" fill="#111D36"/>
<path d="M409.306 98.9585L409.309 102.897C409.31 103.565 409.903 104.065 410.536 103.932L411.944 103.636" stroke="#111D36" stroke-width="1.0166" stroke-miterlimit="10" stroke-linecap="round" stroke-linejoin="round"/>
<path d="M413.333 88.7698L424.661 91.696C424.661 91.696 424.146 88.5188 419.512 87.3643C414.877 86.2098 413.333 88.7698 413.333 88.7698Z" fill="#111D36"/>
<path d="M406.294 88.7698L394.966 91.696C394.966 91.696 395.481 88.5188 400.115 87.3643C404.749 86.2098 406.294 88.7698 406.294 88.7698Z" fill="#111D36"/>
<path d="M429.888 63.9296C422.927 59.006 409.677 63.5858 402.345 66.7807C402.558 64.459 401.121 62.9822 401.121 62.9822C388.53 66.8442 390.112 74.0153 390.992 76.3037C388.524 78.8998 385.132 85.3765 391.569 98.9588C391.569 98.9588 395.164 87.3592 393.635 78.1282C399.604 80.8289 415.804 87.2957 426.101 83.1808C426.455 91.1059 429.524 98.9588 429.524 98.9588C433.42 88.9952 432.875 82.9982 431.324 79.4732C433.1 77.3527 438.329 69.9003 429.888 63.9296Z" fill="#111D36"/>
<path d="M429.005 373.124H468.603C453.977 310.627 442.503 267.428 442.503 267.428L440.691 248.804H410.626L411.985 314.224L429.005 373.124Z" fill="#006AB8"/>
<path d="M411.985 314.224L410.626 248.804H379.072C355.455 284.148 368.821 346.956 368.821 346.956L372.42 373.124H411.985V314.224Z" fill="#006AB8"/>
<path d="M411.985 314.224V295.686L420.925 281.836" stroke="#005A94" stroke-width="1.3684" stroke-miterlimit="10"/>
<path d="M290.433 351.393C290.433 351.393 301.072 298.59 307.332 284.195C307.901 282.889 309.792 283.06 310.169 284.434C311.677 289.92 313.663 306.088 312.776 353.673L312.797 373.124H350.139L355.641 326.313C355.641 326.313 363.959 261.069 336.864 224.016H282.556C282.556 224.016 254.865 264.298 251.217 319.93C250.405 332.308 249.006 351.214 247.321 373.125H285.796L290.433 351.393Z" fill="#0083C8"/>
<path d="M298.027 279.237L310.745 284.434" stroke="#00678D" stroke-width="1.4581" stroke-miterlimit="10"/>
<path d="M297.878 121.032L271.76 128.213L282.557 217.37H337.361L348.172 127.822L319.219 120.641L297.878 121.032Z" fill="#FBBC04"/>
<path d="M336.865 217.37H282.557V224.015H336.865V217.37Z" fill="#111D36"/>
<path d="M323.123 185.243C323.123 185.243 345.504 176.263 357.494 182.529L358.624 196.938L322.079 201.533L323.123 185.243Z" fill="#F7A771"/>
<path d="M370.945 214.292C370.945 214.292 334.609 218.656 305.165 203.203L330.106 195.648L360.922 190.464L370.945 214.292Z" fill="#FBBC04"/>
<path d="M346.405 127.55C346.405 127.55 360.518 128.454 369.513 156.397C379.07 186.088 379.765 209.466 373.132 213.386C366.498 217.306 358.267 208.651 349.825 184.741C341.382 160.83 337.487 147.954 337.487 147.954L346.405 127.55Z" fill="#FBBC04"/>
<path d="M343.507 166.463L345.681 148.45" stroke="#FBBC04" stroke-width="1.4581" stroke-miterlimit="10"/>
<path d="M271.76 128.213C271.76 128.213 257.647 129.117 248.652 157.06C239.095 186.751 238.4 210.129 245.033 214.049C251.667 217.969 260.892 209.314 269.335 185.404C277.778 161.493 280.679 148.617 280.679 148.617L271.76 128.213Z" fill="#FBBC04"/>
<path d="M276.184 164.738L274.224 148.449" stroke="#FBBC04" stroke-width="1.4581" stroke-miterlimit="10"/>
<path d="M283.463 185.352C283.463 185.352 273.325 174.848 256.584 169.381C255.853 169.143 255.041 169.316 254.464 169.825C253.288 170.863 253.562 172.765 254.982 173.429L265.069 178.143L251.829 179.026C249.648 179.172 247.966 181.114 248.273 183.279C248.543 185.185 249.834 187.674 253.507 190.562L283.463 185.352Z" fill="#F7A771"/>
<path d="M253.507 190.562C253.507 190.562 301.494 181.096 324.258 181.19L333.342 203.649C333.342 203.649 262.314 221.457 245.034 214.05L253.507 190.562Z" fill="#FBBC04"/>
<path d="M283.463 185.353C283.463 185.353 313.625 180.647 324.258 181.19L325.541 184.363" stroke="#FBBC04" stroke-width="1.4581" stroke-miterlimit="10"/>
<path d="M282.124 213.797L333.343 203.649L325.541 184.363" stroke="#FBBC04" stroke-width="1.4581" stroke-miterlimit="10"/>
<path d="M284.75 82.5208L274.035 96.5055C274.035 96.5055 312.575 126.11 344.273 94.4124L332.965 80.6143L284.75 82.5208Z" fill="#111D36"/>
<path d="M319.161 119.95L316.455 98.4744C316.455 98.4744 313.661 101.323 309.954 102.011C306.246 102.7 302.657 100.532 302.611 100.506C302.565 100.48 299.584 97.9958 299.584 97.9958L297.949 120.248C297.949 120.512 297.921 120.774 297.88 121.032L309.616 146.544L319.22 120.639C319.185 120.414 319.161 120.183 319.161 119.95Z" fill="#F7A771"/>
<path d="M297.879 98.842C297.879 98.842 303.553 110.828 310.311 109.259C317.366 107.62 317.334 97.3242 317.334 97.3242L297.879 98.842Z" fill="#111D36"/>
<path d="M332.162 67.3474C332.162 80.7676 321.719 91.6473 308.836 91.6473C295.953 91.6473 285.51 80.7676 285.51 67.3474C285.51 53.9273 295.953 44.7969 308.836 44.7969C321.719 44.7969 332.162 53.9273 332.162 67.3474Z" fill="#111D36"/>
<path d="M328.111 68.5979C328.111 76.9645 326.948 84.1844 325.786 89.3083C324.648 94.3247 321.447 97.8311 316.923 100.653L316.098 101.167C311.312 104.152 305.127 104.222 300.268 101.344C295.366 98.4426 291.934 94.6168 290.878 89.2331C288.956 79.4414 288.746 68.5969 288.746 68.5969C288.746 68.5969 286.919 47.4763 308.148 47.8865C329.378 48.2977 328.111 68.5979 328.111 68.5979Z" fill="#F7A771"/>
<path d="M291.062 88.4338C287.321 91.6638 279.446 78.8736 283.067 75.4258C286.69 71.978 289.252 77.5883 289.252 77.5883L289.987 81.6299L291.08 87.0693L291.363 88.2892L291.062 88.4338Z" fill="#F7A771"/>
<path d="M284.695 79.735C284.695 79.735 286.225 76.4219 289.786 82.2383" stroke="#111D36" stroke-width="1.0303" stroke-miterlimit="10" stroke-linecap="round" stroke-linejoin="round"/>
<path d="M325.775 88.5083C329.57 91.6738 337.226 78.7508 333.545 75.3655C329.863 71.9792 327.398 77.6335 327.398 77.6335L326.733 81.6869L325.733 87.1448L325.472 88.3696L325.775 88.5083Z" fill="#F7A771"/>
<path d="M331.993 79.7036C331.993 79.7036 330.405 76.4179 326.945 82.2939" stroke="#111D36" stroke-width="1.0303" stroke-miterlimit="10" stroke-linecap="round" stroke-linejoin="round"/>
<path d="M328.703 63.4296C327.433 57.0946 323.058 53.3069 321.143 51.9151C318.765 49.5612 315.611 47.7103 311.431 47.1711C311.431 47.1711 298.175 44.1824 292.687 54.2084C290.795 55.986 288.506 58.9543 287.608 63.4306C285.967 71.6136 289.019 75.1766 289.019 75.1766C289.019 75.1766 294.232 68.1257 295.544 59.4798C299.56 62.8016 307.698 66.9585 323.142 66.7495C325.556 71.8392 328.467 75.4023 328.467 75.4023C328.467 75.4023 330.344 71.6126 328.703 63.4296Z" fill="#111D36"/>
<path d="M300.98 76.8006C300.98 77.8818 300.103 78.758 299.022 78.758C297.941 78.758 297.065 77.8818 297.065 76.8006C297.065 75.7194 297.941 74.8433 299.022 74.8433C300.103 74.8433 300.98 75.7194 300.98 76.8006Z" fill="#111D36"/>
<path d="M319.101 76.8006C319.101 77.8818 318.225 78.758 317.143 78.758C316.062 78.758 315.186 77.8818 315.186 76.8006C315.186 75.7194 316.062 74.8433 317.143 74.8433C318.225 74.8433 319.101 75.7194 319.101 76.8006Z" fill="#111D36"/>
<path d="M306.635 81.0645L306.638 83.7055C306.639 84.3716 307.23 84.8707 307.861 84.7379L309.265 84.4429" stroke="#111D36" stroke-width="1.0135" stroke-miterlimit="10" stroke-linecap="round" stroke-linejoin="round"/>
<path d="M316.27 67.7448C316.27 67.7448 310.539 67.275 310.481 69.6074C310.481 69.6074 310.486 71.1868 315.486 71.5003C320.486 71.8138 321.787 71.4475 322.243 69.9639C322.7 68.4793 318.958 67.7585 316.27 67.7448Z" fill="#111D36"/>
<path d="M299.134 67.7448C299.134 67.7448 304.865 67.275 304.923 69.6074C304.923 69.6074 304.918 71.1868 299.918 71.5003C294.918 71.8138 293.618 71.4475 293.161 69.9639C292.704 68.4793 296.446 67.7585 299.134 67.7448Z" fill="#111D36"/>
<path d="M313.268 86.7739C313.268 86.7739 311.21 90.0801 305.907 89.1454" stroke="#111D36" stroke-width="1.0135" stroke-miterlimit="10" stroke-linecap="round" stroke-linejoin="round"/>
<path d="M413.888 113.576C413.888 113.576 410.81 115.961 406.162 113.243" stroke="#111D36" stroke-width="1.0135" stroke-miterlimit="10" stroke-linecap="round" stroke-linejoin="round"/>
<path d="M46.8906 373.124H550.178" stroke="#111D36" stroke-width="0.9847" stroke-miterlimit="10" stroke-linecap="round" stroke-linejoin="round"/>
<g clip-path="url(#clip0_23_719)">
<path d="M581.585 207.625L584.211 205.109L580.609 204.559L579 201.286L577.364 204.531L573.761 205.026L576.374 207.625L575.727 211.2L579 209.495L582.217 211.214L581.585 207.625ZM580.361 208.684L578.986 207.941L577.611 208.67L577.886 207.116L576.772 206.016L578.326 205.796L579.027 204.421L579.715 205.796L581.269 206.03L580.141 207.116L580.361 208.684ZM566.625 193.875H561.125V195.25H566.625V193.875ZM573.5 191.125H561.125V192.5H573.5V191.125ZM566.35 203.39L566.625 199.375H577.625V187H557V199.375H560.905L566.35 203.39ZM558.375 188.375H576.25V198H565.25L565.085 200.75L561.359 198H558.375V188.375ZM597.741 218.529L594.125 217.69C594.254 217.516 594.369 217.332 594.469 217.14C595.064 215.85 595.333 214.434 595.252 213.015C595.348 212.864 595.436 212.708 595.514 212.548C595.97 211.654 596.154 210.645 596.042 209.648C595.929 208.65 595.526 207.708 594.881 206.938C594.463 206.558 593.962 206.281 593.418 206.128C592.873 205.975 592.301 205.951 591.746 206.058C590.552 206.217 589.423 206.691 588.474 207.433L588.336 207.529C588.159 207.693 587.954 207.823 587.731 207.914C587.489 207.961 587.237 207.912 587.03 207.776C586.918 207.721 586.815 207.646 586.727 207.556C586.647 207.475 586.547 207.416 586.438 207.383C586.328 207.35 586.212 207.345 586.1 207.368C585.989 207.391 585.884 207.442 585.797 207.516C585.709 207.589 585.642 207.684 585.6 207.79C585.306 208.622 585.268 209.522 585.49 210.375C585.74 211.274 586.258 212.075 586.975 212.671C586.864 214.412 587.251 216.147 588.089 217.676L584.5 218.529C583.568 218.744 582.736 219.269 582.142 220.019C581.547 220.768 581.225 221.697 581.227 222.654V231H601V222.654C601.003 221.699 600.683 220.772 600.091 220.022C599.499 219.273 598.671 218.747 597.741 218.529ZM586.824 210.045C586.75 209.753 586.723 209.452 586.741 209.151C587.178 209.327 587.659 209.361 588.116 209.248C588.509 209.109 588.872 208.899 589.189 208.629L589.299 208.533C590.062 207.936 590.967 207.547 591.925 207.405C592.271 207.339 592.628 207.348 592.97 207.434C593.312 207.519 593.631 207.678 593.905 207.9C594.314 208.411 594.578 209.023 594.67 209.671C594.762 210.319 594.678 210.98 594.427 211.585C594.067 211.252 593.66 210.974 593.217 210.76C592.612 210.393 591.894 210.256 591.196 210.375C590.808 210.485 590.459 210.705 590.192 211.008C590.04 211.184 589.859 211.333 589.656 211.448C589.258 211.733 588.767 211.856 588.281 211.791C587.415 211.626 586.934 210.471 586.824 210.045ZM591.114 218.199C590.644 218.186 590.191 218.022 589.821 217.731L589.725 217.608C589.596 217.493 589.481 217.364 589.381 217.223C588.664 216.003 588.302 214.608 588.336 213.194C589.047 213.23 589.751 213.037 590.344 212.644C590.656 212.47 590.939 212.247 591.182 211.984C591.375 211.75 591.375 211.75 591.54 211.75C591.947 211.712 592.354 211.814 592.695 212.039C593.185 212.284 593.609 212.642 593.932 213.084C594.012 214.269 593.794 215.455 593.3 216.535C593.179 216.756 593.041 216.968 592.887 217.168L592.819 217.291C592.734 217.407 592.637 217.513 592.53 217.608L592.461 217.676C592.09 218.009 591.611 218.194 591.114 218.199ZM592.227 219.368V219.656C592.227 219.945 592.113 220.221 591.909 220.425C591.706 220.628 591.429 220.743 591.141 220.743C590.997 220.745 590.855 220.718 590.721 220.664C590.588 220.61 590.467 220.531 590.364 220.429C590.262 220.328 590.181 220.208 590.125 220.075C590.07 219.943 590.041 219.8 590.041 219.656V219.381C590.386 219.502 590.748 219.567 591.114 219.574C591.495 219.575 591.872 219.505 592.227 219.368ZM599.625 229.625H597.301V226.875H595.926V229.625H586.301V226.875H584.926V229.625H582.644V222.654C582.652 222.014 582.874 221.395 583.276 220.897C583.677 220.398 584.234 220.049 584.857 219.904L588.625 218.969V219.656C588.672 220.279 588.952 220.861 589.409 221.286C589.867 221.711 590.469 221.947 591.093 221.947C591.718 221.947 592.319 221.711 592.777 221.286C593.235 220.861 593.515 220.279 593.561 219.656V218.969L597.384 219.876C598.005 220.024 598.559 220.374 598.957 220.873C599.356 221.371 599.576 221.988 599.584 222.626L599.625 229.625ZM590 193.875H584.5V195.25H590V193.875ZM580.375 187V199.375H591.375L591.609 203.39L597.109 199.375H601V187H580.375ZM599.625 198H596.641L592.874 200.75L592.75 198H581.75V188.375H599.625V198ZM596.875 191.125H584.5V192.5H596.875V191.125ZM573.5 218.529L569.939 217.69C570.063 217.513 570.177 217.329 570.282 217.14C570.878 215.85 571.147 214.434 571.066 213.015C571.162 212.864 571.249 212.708 571.327 212.548C571.784 211.654 571.968 210.645 571.855 209.648C571.743 208.65 571.339 207.708 570.695 206.938C570.277 206.557 569.776 206.279 569.232 206.127C568.687 205.974 568.115 205.95 567.56 206.058C566.366 206.217 565.236 206.691 564.287 207.433L564.15 207.529C563.973 207.693 563.768 207.823 563.545 207.914C563.302 207.949 563.055 207.9 562.844 207.776C562.722 207.746 562.605 207.695 562.5 207.625C562.42 207.542 562.32 207.48 562.209 207.446C562.098 207.412 561.981 207.408 561.867 207.433C561.755 207.453 561.649 207.504 561.562 207.579C561.475 207.654 561.41 207.75 561.372 207.859C561.079 208.665 561.026 209.54 561.221 210.375C561.472 211.274 561.99 212.075 562.706 212.671C562.61 214.422 563.015 216.163 563.875 217.69L560.327 218.529C559.395 218.744 558.564 219.269 557.969 220.019C557.375 220.768 557.052 221.697 557.055 222.654V231H576.731V222.654C576.736 221.703 576.42 220.778 575.833 220.029C575.247 219.281 574.425 218.752 573.5 218.529ZM562.5 210.045C562.454 209.749 562.454 209.448 562.5 209.151C562.938 209.322 563.417 209.355 563.875 209.248C564.268 209.109 564.631 208.899 564.947 208.629L565.057 208.533C565.821 207.936 566.726 207.547 567.684 207.405C568.03 207.333 568.388 207.339 568.731 207.425C569.074 207.511 569.393 207.673 569.664 207.9C570.073 208.411 570.337 209.023 570.429 209.671C570.521 210.319 570.437 210.98 570.186 211.585C569.826 211.252 569.418 210.974 568.976 210.76C568.367 210.388 567.644 210.251 566.941 210.375C566.548 210.482 566.194 210.702 565.924 211.008C565.768 211.181 565.587 211.329 565.387 211.448C564.988 211.731 564.498 211.853 564.012 211.791C563.146 211.626 562.665 210.471 562.5 210.045ZM566.79 218.199C566.32 218.184 565.868 218.021 565.497 217.731L565.401 217.608C565.293 217.499 565.196 217.379 565.112 217.25C564.396 216.031 564.034 214.636 564.067 213.221C564.778 213.258 565.482 213.065 566.075 212.671C566.388 212.497 566.671 212.274 566.914 212.011C567.001 211.887 567.127 211.796 567.271 211.75C567.678 211.714 568.085 211.816 568.426 212.039C568.916 212.284 569.34 212.642 569.664 213.084C569.743 214.269 569.525 215.455 569.031 216.535C568.91 216.753 568.776 216.964 568.632 217.168L568.55 217.25C568.464 217.361 568.372 217.466 568.275 217.566L568.192 217.635C567.828 217.982 567.348 218.183 566.845 218.199H566.79ZM567.904 219.368V219.656C567.904 219.945 567.789 220.221 567.586 220.425C567.382 220.628 567.106 220.743 566.817 220.743C566.674 220.745 566.531 220.718 566.398 220.664C566.264 220.61 566.143 220.531 566.04 220.429C565.938 220.328 565.857 220.208 565.801 220.075C565.746 219.943 565.717 219.8 565.717 219.656V219.368C566.063 219.488 566.424 219.558 566.79 219.574C567.203 219.587 567.615 219.517 568 219.368H567.904ZM575.356 229.625H573.032V226.875H571.657V229.625H562.032V226.875H560.657V229.625H558.375V222.654C558.383 222.014 558.606 221.395 559.007 220.897C559.408 220.398 559.965 220.049 560.589 219.904L564.397 218.996V219.684C564.444 220.307 564.724 220.889 565.182 221.314C565.64 221.739 566.241 221.975 566.866 221.975C567.49 221.975 568.092 221.739 568.549 221.314C569.007 220.889 569.287 220.307 569.334 219.684V218.996L573.156 219.904C573.777 220.051 574.331 220.402 574.73 220.9C575.128 221.399 575.349 222.016 575.356 222.654V229.625Z" fill="white"/>
</g>
<path d="M46.285 73.5004L33.565 61.0454C33.035 60.5154 33.035 59.7204 33.565 59.1904L39.925 52.8304C40.455 52.3004 41.25 52.3004 41.78 52.8304L54.235 65.2854" stroke="white" stroke-miterlimit="10"/>
<path d="M62.45 73.5002L75.17 86.2202C75.7 86.7502 75.7 87.5452 75.17 88.0752L68.81 94.4352C68.28 94.9652 67.485 94.9652 66.955 94.4352L54.5 81.7152" stroke="white" stroke-miterlimit="10"/>
<path d="M65.2521 92.7461L62.6288 90.1227L68.063 84.6887L70.6863 87.3121L65.2521 92.7461Z" fill="white"/>
<path d="M59.8004 87.1797L57.177 84.5563L59.9878 81.7456L62.6112 84.369L59.8004 87.1797Z" fill="white"/>
<path d="M43.5724 70.7629L40.9491 68.1395L46.3833 62.7055L49.0067 65.3289L43.5724 70.7629Z" fill="white"/>
<path d="M38.1188 65.5757L35.4955 62.9523L38.3063 60.1416L40.9296 62.765L38.1188 65.5757Z" fill="white"/>
<path d="M65.1 54.6853L66.69 53.0953C67.75 52.0353 69.34 52.0353 70.4 53.0953L74.905 57.6003C75.965 58.6603 75.965 60.2503 74.905 61.3103L73.315 62.9003" stroke="white" stroke-miterlimit="10" stroke-linecap="round" stroke-linejoin="round"/>
<path d="M63.0249 57.0349L71.0822 65.0925L45.7851 90.3888L37.7277 82.3312L63.0249 57.0349Z" stroke="white" stroke-miterlimit="10" stroke-linecap="round" stroke-linejoin="round"/>
<path d="M39.7117 85.5376L65.5702 59.6782L68.1936 62.3016L42.3351 88.1609L39.7117 85.5376Z" fill="white"/>
<path d="M33.565 94.4354L37.54 82.2454L45.755 90.4604L33.565 94.4354Z" stroke="white" stroke-miterlimit="10" stroke-linecap="round" stroke-linejoin="round"/>
<path d="M34.89 90.4602L33.565 94.4352L37.54 93.1102L34.89 90.4602Z" fill="white"/>
<path d="M73.845 62.3703L70.665 65.2853L62.715 57.3353L65.63 54.1553" stroke="white" stroke-miterlimit="10" stroke-linecap="round" stroke-linejoin="round"/>
<defs>
<clipPath id="clip0_23_719">
<rect width="44" height="44" fill="white" transform="translate(557 187)"/>
</clipPath>
</defs>
</svg>
