<svg width="65" height="65" viewBox="0 0 65 65" fill="none" xmlns="http://www.w3.org/2000/svg">
<ellipse cx="32.4652" cy="32.46" rx="32.4652" ry="32.46" fill="#F1F1F1"/>
<path fill-rule="evenodd" clip-rule="evenodd" d="M26.617 19.0777C27.999 19.0141 28.4396 19 31.96 19C35.4804 19 35.9211 19.0153 37.3019 19.0777C38.6827 19.1402 39.6253 19.3605 40.45 19.6797C41.3136 20.006 42.0971 20.5161 42.7451 21.1758C43.4049 21.8225 43.9139 22.6047 44.2391 23.4693C44.5595 24.2939 44.7787 25.2363 44.8423 26.6146C44.9059 27.9987 44.9201 28.4393 44.9201 31.958C44.9201 35.4778 44.9047 35.9184 44.8423 37.3002C44.7799 38.6785 44.5595 39.6209 44.2391 40.4455C43.9139 41.3102 43.4041 42.0937 42.7451 42.7414C42.0971 43.4011 41.3136 43.91 40.45 44.2351C39.6253 44.5555 38.6827 44.7746 37.3043 44.8382C35.9211 44.9018 35.4804 44.916 31.96 44.916C28.4396 44.916 27.999 44.9007 26.617 44.8382C25.2385 44.7758 24.2959 44.5555 23.4712 44.2351C22.6063 43.9099 21.8227 43.4002 21.1749 42.7414C20.5156 42.0943 20.0054 41.3112 19.6798 40.4466C19.3605 39.622 19.1414 38.6796 19.0778 37.3014C19.0141 35.9172 19 35.4767 19 31.958C19 28.4381 19.0153 27.9976 19.0778 26.6169C19.1402 25.2363 19.3605 24.2939 19.6798 23.4693C20.0058 22.6048 20.5165 21.8217 21.1761 21.1746C21.823 20.5155 22.6058 20.0054 23.47 19.6797C24.2948 19.3605 25.2373 19.1414 26.6158 19.0777H26.617ZM37.1971 21.4102C35.8304 21.3478 35.4204 21.3348 31.96 21.3348C28.4997 21.3348 28.0897 21.3478 26.723 21.4102C25.4588 21.4679 24.7731 21.6788 24.316 21.8566C23.7116 22.0922 23.2792 22.3714 22.8256 22.825C22.3956 23.2432 22.0647 23.7524 21.8571 24.3151C21.6792 24.7722 21.4683 25.4578 21.4106 26.7218C21.3481 28.0883 21.3352 28.4982 21.3352 31.958C21.3352 35.4178 21.3481 35.8277 21.4106 37.1942C21.4683 38.4582 21.6792 39.1438 21.8571 39.6008C22.0645 40.1628 22.3955 40.6728 22.8256 41.091C23.2438 41.521 23.754 41.852 24.316 42.0593C24.7731 42.2372 25.4588 42.4481 26.723 42.5058C28.0897 42.5682 28.4985 42.5812 31.96 42.5812C35.4215 42.5812 35.8304 42.5682 37.1971 42.5058C38.4612 42.4481 39.147 42.2372 39.6041 42.0593C40.2085 41.8237 40.6409 41.5445 41.0945 41.091C41.5245 40.6728 41.8556 40.1628 42.063 39.6008C42.2409 39.1438 42.4518 38.4582 42.5095 37.1942C42.5719 35.8277 42.5849 35.4178 42.5849 31.958C42.5849 28.4982 42.5719 28.0883 42.5095 26.7218C42.4518 25.4578 42.2409 24.7722 42.063 24.3151C41.8273 23.7108 41.5481 23.2785 41.0945 22.825C40.6762 22.3951 40.1669 22.0642 39.6041 21.8566C39.147 21.6788 38.4612 21.4679 37.1971 21.4102ZM30.3047 35.9526C31.2292 36.3374 32.2586 36.3893 33.2171 36.0995C34.1756 35.8097 35.0037 35.1962 35.5601 34.3637C36.1165 33.5313 36.3665 32.5315 36.2675 31.5352C36.1685 30.5389 35.7267 29.6078 35.0174 28.9011C34.5653 28.4493 34.0186 28.1034 33.4167 27.8882C32.8147 27.673 32.1726 27.5939 31.5365 27.6567C30.9003 27.7194 30.286 27.9224 29.7377 28.251C29.1895 28.5796 28.7209 29.0256 28.3657 29.5571C28.0106 30.0885 27.7777 30.692 27.6838 31.3242C27.59 31.9564 27.6374 32.6015 27.8229 33.2132C28.0083 33.8248 28.3271 34.3877 28.7562 34.8614C29.1854 35.3351 29.7142 35.7078 30.3047 35.9526ZM27.2496 27.2483C27.8682 26.6299 28.6026 26.1393 29.4108 25.8045C30.219 25.4698 31.0852 25.2976 31.96 25.2976C32.8348 25.2976 33.7011 25.4698 34.5093 25.8045C35.3175 26.1393 36.0518 26.6299 36.6704 27.2483C37.289 27.8668 37.7797 28.6011 38.1144 29.4091C38.4492 30.2172 38.6215 31.0833 38.6215 31.958C38.6215 32.8326 38.4492 33.6987 38.1144 34.5068C37.7797 35.3149 37.289 36.0491 36.6704 36.6676C35.4211 37.9167 33.7268 38.6184 31.96 38.6184C30.1933 38.6184 28.4989 37.9167 27.2496 36.6676C26.0004 35.4186 25.2985 33.7244 25.2985 31.958C25.2985 30.1915 26.0004 28.4974 27.2496 27.2483ZM40.0989 26.2895C40.2522 26.1449 40.3749 25.971 40.4598 25.7782C40.5447 25.5853 40.59 25.3774 40.5931 25.1667C40.5961 24.9561 40.5569 24.7469 40.4777 24.5517C40.3985 24.3564 40.2809 24.1791 40.1319 24.0301C39.9829 23.8811 39.8055 23.7635 39.6102 23.6843C39.4149 23.6051 39.2058 23.5659 38.995 23.569C38.7843 23.572 38.5764 23.6173 38.3835 23.7022C38.1906 23.7871 38.0168 23.9098 37.8722 24.063C37.5909 24.3611 37.437 24.757 37.4429 25.1667C37.4489 25.5765 37.6144 25.9677 37.9042 26.2575C38.1939 26.5472 38.5853 26.7126 38.995 26.7186C39.4048 26.7246 39.8008 26.5706 40.0989 26.2895Z" fill="black"/>
</svg>
