<svg width="66" height="66" viewBox="0 0 66 66" fill="none" xmlns="http://www.w3.org/2000/svg">
<ellipse cx="33.432" cy="33.0636" rx="32.4652" ry="32.46" fill="#F1F1F1"/>
<path fill-rule="evenodd" clip-rule="evenodd" d="M30.673 29.7306H35.352V32.0609C36.026 30.7207 37.7545 29.5165 40.3511 29.5165C45.3287 29.5165 46.5104 32.1844 46.5104 37.0794V46.145H41.4711V38.1942C41.4711 35.4066 40.7971 33.8345 39.0812 33.8345C36.7013 33.8345 35.7123 35.5287 35.7123 38.1929V46.145H30.673V29.7306ZM22.0317 45.9309H27.0711V29.5165H22.0317V45.9309ZM27.793 24.1642C27.7932 24.5866 27.7094 25.0047 27.5465 25.3944C27.3837 25.7841 27.145 26.1375 26.8443 26.4341C26.235 27.0395 25.4104 27.3784 24.5514 27.3763C23.6939 27.3758 22.8712 27.0377 22.261 26.4354C21.9614 26.1377 21.7235 25.7839 21.561 25.3942C21.3984 25.0045 21.3143 24.5865 21.3136 24.1642C21.3136 23.3115 21.6538 22.4952 22.2623 21.8931C22.8719 21.2899 23.695 20.9518 24.5527 20.9521C25.4119 20.9521 26.2358 21.291 26.8443 21.8931C27.4515 22.4952 27.793 23.3115 27.793 24.1642Z" fill="black"/>
</svg>
