<svg width="66" height="66" viewBox="0 0 66 66" fill="none" xmlns="http://www.w3.org/2000/svg">
<ellipse cx="33.3992" cy="33.1036" rx="32.4652" ry="32.46" fill="#F1F1F1"/>
<path d="M47.0719 24.5387C46.0881 24.9746 45.0313 25.2691 43.9203 25.4022C45.0667 24.7164 45.9243 23.6369 46.3332 22.3653C45.2562 23.005 44.0774 23.4552 42.8481 23.6965C42.0215 22.814 40.9266 22.2291 39.7334 22.0325C38.5402 21.8359 37.3155 22.0388 36.2494 22.6095C35.1833 23.1802 34.3355 24.0868 33.8376 25.1886C33.3396 26.2905 33.2195 27.5258 33.4957 28.7029C31.3133 28.5934 29.1784 28.0262 27.2294 27.0383C25.2805 26.0504 23.5611 24.6638 22.1828 22.9685C21.7115 23.7813 21.4405 24.7237 21.4405 25.7273C21.44 26.6308 21.6625 27.5205 22.0884 28.3174C22.5142 29.1143 23.1302 29.7938 23.8817 30.2956C23.0102 30.2679 22.1579 30.0324 21.3958 29.6088V29.6795C21.3957 30.9467 21.8341 32.175 22.6366 33.1558C23.4391 34.1366 24.5563 34.8096 25.7986 35.0606C24.9901 35.2794 24.1425 35.3116 23.3197 35.1549C23.6702 36.2452 24.353 37.1987 25.2724 37.8818C26.1918 38.565 27.3019 38.9435 28.4472 38.9645C26.503 40.4905 24.1019 41.3182 21.6302 41.3146C21.1924 41.3147 20.7549 41.2892 20.3201 41.238C22.829 42.8509 25.7495 43.7069 28.7323 43.7036C38.8293 43.7036 44.3491 35.3422 44.3491 28.0904C44.3491 27.8548 44.3433 27.6168 44.3326 27.3812C45.4063 26.6049 46.3331 25.6436 47.0696 24.5423L47.0719 24.5387Z" fill="black"/>
</svg>
